<svg xmlns="http://www.w3.org/2000/svg" xmlns:xlink="http://www.w3.org/1999/xlink" version="1.1" id="Calque_1" x="0px" y="0px" width="100px" height="100px" viewBox="5.0 -10.0 100.0 135.0" enable-background="new 0 0 100 100" xml:space="preserve">
<path fill="#000000" d="M90.254,27.63v-0.193l-0.086,0.178l-4.357-0.793l-0.145,0.796l4.135,0.752L64.4,80.583L42.001,73.09  l0.043-0.809l0.026-0.027L42,72.255c-0.029-3.334,0.049-7.862,0.125-12.242C42.189,56.309,42.25,52.81,42.25,50h1  c0,2.818-0.061,6.321-0.125,10.03c-0.069,3.97-0.139,8.051-0.129,11.256l18.002-18.844l7.479,1.298l21.777-35.422v-2.177L67.5,44.5  L7.741,35.576v8.344L32,48.232l-0.03,2.552L12.174,64.457l19.203,5.06l-0.255,0.967L11.46,65.303l0.644,9.008l53.742,16.621  l24.408-57.317v-5.956l0.006-0.028H90.254z"/>
<text x="0.0" y="117.5" font-size="5.0" font-weight="bold" font-family="Helvetica Neue, Helvetica, Arial-Unicode, Arial, Sans-serif" fill="#000000">Created by Philippe Vo</text><text x="0.0" y="122.5" font-size="5.0" font-weight="bold" font-family="Helvetica Neue, Helvetica, Arial-Unicode, Arial, Sans-serif" fill="#000000">from the Noun Project</text></svg>