<svg xmlns="http://www.w3.org/2000/svg" xmlns:xlink="http://www.w3.org/1999/xlink" version="1.0" x="0px" y="0px" width="100px" height="100px" viewBox="5.0 -10.0 100.0 135.0" overflow="" enable-background="new 0 0 100 100" xml:space="preserve">
    <path d="M71.749,13.94l-48.13-7.807L1.398,39.985v3.655l4.99,1.466L6.38,78.412L54.541,95.24L91.05,83.356l0.004-40.202l6.557,1.944 l2.927-3L71.749,13.94z M51.584,14.495l8.828,1.411v9.513l-5.458,9.731c0-1.469,0-13.036,0-16.41l-7.972-1.343L51.584,14.495z M87.488,80.17l-9.006,2.853V56.609l-11.224,3.517v26.587l-11.342,3.709l0.012-37.07l-2.921,5.687l-29.87-8.912v-3.819l27.812,8.296 l19.756-35.829l16.794,16.447L87.488,80.17z"/>
<text x="0.0" y="117.5" font-size="5.0" font-weight="bold" font-family="Helvetica Neue, Helvetica, Arial-Unicode, Arial, Sans-serif" fill="#000000">Created by Scott Lewis</text><text x="0.0" y="122.5" font-size="5.0" font-weight="bold" font-family="Helvetica Neue, Helvetica, Arial-Unicode, Arial, Sans-serif" fill="#000000">from the Noun Project</text></svg>